<?xml version="1.0" encoding="utf-8"?>
<!-- Generator: Adobe Illustrator 16.0.0, SVG Export Plug-In . SVG Version: 6.00 Build 0)  -->
<!DOCTYPE svg PUBLIC "-//W3C//DTD SVG 1.1//EN" "http://www.w3.org/Graphics/SVG/1.1/DTD/svg11.dtd">
<svg version="1.1" id="Layer_1" xmlns="http://www.w3.org/2000/svg" xmlns:xlink="http://www.w3.org/1999/xlink" x="0px" y="0px"
	 width="55px" height="55px" viewBox="0 0 55 55" enable-background="new 0 0 55 55" xml:space="preserve">
<g>
	<path fill="#FFFFFF" d="M27.5,4.05c12.951,0,23.45,10.499,23.45,23.45S40.451,50.95,27.5,50.95c-12.952,0-23.45-10.499-23.45-23.45
		S14.548,4.05,27.5,4.05 M27.5,3.05C14.018,3.05,3.05,14.018,3.05,27.5c0,13.482,10.968,24.45,24.45,24.45
		c13.482,0,24.45-10.968,24.45-24.45C51.95,14.018,40.982,3.05,27.5,3.05L27.5,3.05z"/>
	<g>
		<rect x="27" y="18" fill="#FFFFFF" width="1" height="20"/>
		<polygon fill="#FFFFFF" points="27.5,38.207 22.646,33.354 23.354,32.646 27.5,36.793 31.646,32.646 32.354,33.354 		"/>
	</g>
</g>
</svg>
